<svg xmlns="http://www.w3.org/2000/svg" width="800" height="600" viewBox="0 0 800 600">
  <defs>
    <linearGradient id="dusk" x1="0%" y1="0%" x2="0%" y2="100%">
      <stop offset="0%" style="stop-color:#312e81;stop-opacity:1"/>
      <stop offset="50%" style="stop-color:#7c3aed;stop-opacity:0.8"/>
      <stop offset="100%" style="stop-color:#1e1b4b;stop-opacity:1"/>
    </linearGradient>
  </defs>
  <rect width="800" height="600" fill="url(#dusk)"/>
  <!-- Ground -->
  <rect x="0" y="460" width="800" height="140" fill="#0f0e1e"/>
  <!-- Moon -->
  <circle cx="700" cy="80" r="40" fill="#fef3c7" opacity="0.9"/>
  <circle cx="720" cy="65" r="35" fill="#7c3aed" opacity="0.7"/>
  <!-- Stars -->
  <g fill="white" opacity="0.7">
    <circle cx="50" cy="40" r="1.5"/>
    <circle cx="100" cy="20" r="1"/>
    <circle cx="180" cy="50" r="1.5"/>
    <circle cx="250" cy="30" r="1"/>
    <circle cx="350" cy="15" r="1.5"/>
    <circle cx="450" cy="35" r="1"/>
    <circle cx="550" cy="20" r="1.5"/>
    <circle cx="30" cy="100" r="1"/>
    <circle cx="130" cy="110" r="1.5"/>
  </g>
  <!-- Luxury tower -->
  <!-- Base -->
  <rect x="280" y="100" width="240" height="360" fill="#1e1b4b"/>
  <!-- Gradient overlay -->
  <rect x="280" y="100" width="240" height="360" fill="#312e81" opacity="0.3"/>
  <!-- Lit windows - warm glow -->
  <g>
    <rect x="300" y="120" width="40" height="28" fill="#fbbf24" opacity="0.9" rx="2"/>
    <rect x="355" y="120" width="40" height="28" fill="#fbbf24" opacity="0.7" rx="2"/>
    <rect x="410" y="120" width="40" height="28" fill="#fbbf24" opacity="0.85" rx="2"/>
    <rect x="465" y="120" width="40" height="28" fill="#818cf8" opacity="0.6" rx="2"/>

    <rect x="300" y="163" width="40" height="28" fill="#818cf8" opacity="0.6" rx="2"/>
    <rect x="355" y="163" width="40" height="28" fill="#fbbf24" opacity="0.9" rx="2"/>
    <rect x="410" y="163" width="40" height="28" fill="#818cf8" opacity="0.5" rx="2"/>
    <rect x="465" y="163" width="40" height="28" fill="#fbbf24" opacity="0.8" rx="2"/>

    <rect x="300" y="206" width="40" height="28" fill="#fbbf24" opacity="0.75" rx="2"/>
    <rect x="355" y="206" width="40" height="28" fill="#818cf8" opacity="0.6" rx="2"/>
    <rect x="410" y="206" width="40" height="28" fill="#fbbf24" opacity="0.9" rx="2"/>
    <rect x="465" y="206" width="40" height="28" fill="#fbbf24" opacity="0.7" rx="2"/>

    <rect x="300" y="249" width="40" height="28" fill="#818cf8" opacity="0.5" rx="2"/>
    <rect x="355" y="249" width="40" height="28" fill="#fbbf24" opacity="0.85" rx="2"/>
    <rect x="410" y="249" width="40" height="28" fill="#fbbf24" opacity="0.8" rx="2"/>
    <rect x="465" y="249" width="40" height="28" fill="#818cf8" opacity="0.65" rx="2"/>

    <rect x="300" y="292" width="40" height="28" fill="#fbbf24" opacity="0.9" rx="2"/>
    <rect x="355" y="292" width="40" height="28" fill="#fbbf24" opacity="0.65" rx="2"/>
    <rect x="410" y="292" width="40" height="28" fill="#818cf8" opacity="0.5" rx="2"/>
    <rect x="465" y="292" width="40" height="28" fill="#fbbf24" opacity="0.85" rx="2"/>

    <rect x="300" y="335" width="40" height="28" fill="#818cf8" opacity="0.6" rx="2"/>
    <rect x="355" y="335" width="40" height="28" fill="#fbbf24" opacity="0.9" rx="2"/>
    <rect x="410" y="335" width="40" height="28" fill="#fbbf24" opacity="0.75" rx="2"/>
    <rect x="465" y="335" width="40" height="28" fill="#fbbf24" opacity="0.8" rx="2"/>

    <rect x="300" y="378" width="40" height="28" fill="#fbbf24" opacity="0.85" rx="2"/>
    <rect x="355" y="378" width="40" height="28" fill="#818cf8" opacity="0.55" rx="2"/>
    <rect x="410" y="378" width="40" height="28" fill="#fbbf24" opacity="0.9" rx="2"/>
    <rect x="465" y="378" width="40" height="28" fill="#fbbf24" opacity="0.7" rx="2"/>

    <rect x="300" y="421" width="40" height="28" fill="#818cf8" opacity="0.5" rx="2"/>
    <rect x="355" y="421" width="40" height="28" fill="#fbbf24" opacity="0.8" rx="2"/>
    <rect x="410" y="421" width="40" height="28" fill="#fbbf24" opacity="0.85" rx="2"/>
    <rect x="465" y="421" width="40" height="28" fill="#818cf8" opacity="0.6" rx="2"/>
  </g>
  <!-- Roof antenna -->
  <rect x="397" y="70" width="6" height="32" fill="#c49a2e"/>
  <circle cx="400" cy="65" r="6" fill="#c49a2e"/>
  <!-- Glow at base -->
  <ellipse cx="400" cy="462" rx="180" ry="12" fill="#7c3aed" opacity="0.3"/>
  <!-- Label -->
  <text x="400" y="545" text-anchor="middle" font-family="Arial, sans-serif" font-size="14" fill="#c49a2e" opacity="0.9">EMERA DEVELOPMENTS</text>
</svg>
