<svg xmlns="http://www.w3.org/2000/svg" width="800" height="600" viewBox="0 0 800 600">
  <defs>
    <linearGradient id="g1" x1="0%" y1="0%" x2="100%" y2="100%">
      <stop offset="0%" style="stop-color:#1a2744;stop-opacity:1" />
      <stop offset="100%" style="stop-color:#0d1829;stop-opacity:1" />
    </linearGradient>
  </defs>
  <rect width="800" height="600" fill="url(#g1)"/>
  <!-- Ground -->
  <rect x="0" y="480" width="800" height="120" fill="#0a1020"/>
  <!-- Building A -->
  <rect x="80" y="180" width="160" height="300" fill="#1e3a5f"/>
  <rect x="85" y="185" width="150" height="290" fill="#243d63"/>
  <!-- Windows A -->
  <rect x="100" y="200" width="30" height="30" fill="#7eb8e8" opacity="0.7"/>
  <rect x="145" y="200" width="30" height="30" fill="#7eb8e8" opacity="0.5"/>
  <rect x="190" y="200" width="30" height="30" fill="#7eb8e8" opacity="0.8"/>
  <rect x="100" y="245" width="30" height="30" fill="#7eb8e8" opacity="0.6"/>
  <rect x="145" y="245" width="30" height="30" fill="#f0c060" opacity="0.9"/>
  <rect x="190" y="245" width="30" height="30" fill="#7eb8e8" opacity="0.4"/>
  <rect x="100" y="290" width="30" height="30" fill="#7eb8e8" opacity="0.7"/>
  <rect x="145" y="290" width="30" height="30" fill="#7eb8e8" opacity="0.5"/>
  <rect x="190" y="290" width="30" height="30" fill="#f0c060" opacity="0.8"/>
  <rect x="100" y="335" width="30" height="30" fill="#7eb8e8" opacity="0.3"/>
  <rect x="145" y="335" width="30" height="30" fill="#7eb8e8" opacity="0.7"/>
  <rect x="190" y="335" width="30" height="30" fill="#7eb8e8" opacity="0.6"/>
  <rect x="100" y="380" width="30" height="30" fill="#f0c060" opacity="0.5"/>
  <rect x="145" y="380" width="30" height="30" fill="#7eb8e8" opacity="0.4"/>
  <rect x="190" y="380" width="30" height="30" fill="#7eb8e8" opacity="0.8"/>
  <!-- Building B (tall) -->
  <rect x="300" y="80" width="200" height="400" fill="#162d4a"/>
  <rect x="305" y="85" width="190" height="390" fill="#1c3554"/>
  <!-- Windows B -->
  <g fill="#7eb8e8" opacity="0.6">
    <rect x="320" y="100" width="35" height="25"/>
    <rect x="370" y="100" width="35" height="25"/>
    <rect x="420" y="100" width="35" height="25"/>
    <rect x="470" y="100" width="35" height="25"/>
    <rect x="320" y="140" width="35" height="25"/>
    <rect x="370" y="140" width="35" height="25" fill="#f0c060" opacity="0.9"/>
    <rect x="420" y="140" width="35" height="25"/>
    <rect x="470" y="140" width="35" height="25"/>
    <rect x="320" y="180" width="35" height="25"/>
    <rect x="370" y="180" width="35" height="25"/>
    <rect x="420" y="180" width="35" height="25" fill="#f0c060" opacity="0.8"/>
    <rect x="470" y="180" width="35" height="25"/>
    <rect x="320" y="220" width="35" height="25"/>
    <rect x="370" y="220" width="35" height="25"/>
    <rect x="420" y="220" width="35" height="25"/>
    <rect x="470" y="220" width="35" height="25"/>
    <rect x="320" y="260" width="35" height="25"/>
    <rect x="370" y="260" width="35" height="25" fill="#f0c060" opacity="0.7"/>
    <rect x="420" y="260" width="35" height="25"/>
    <rect x="470" y="260" width="35" height="25"/>
    <rect x="320" y="300" width="35" height="25"/>
    <rect x="370" y="300" width="35" height="25"/>
    <rect x="420" y="300" width="35" height="25"/>
    <rect x="470" y="300" width="35" height="25"/>
    <rect x="320" y="340" width="35" height="25"/>
    <rect x="370" y="340" width="35" height="25"/>
    <rect x="420" y="340" width="35" height="25" fill="#f0c060" opacity="0.9"/>
    <rect x="470" y="340" width="35" height="25"/>
    <rect x="320" y="380" width="35" height="25"/>
    <rect x="370" y="380" width="35" height="25"/>
    <rect x="420" y="380" width="35" height="25"/>
    <rect x="470" y="380" width="35" height="25"/>
    <rect x="320" y="420" width="35" height="25"/>
    <rect x="370" y="420" width="35" height="25" fill="#f0c060" opacity="0.6"/>
    <rect x="420" y="420" width="35" height="25"/>
    <rect x="470" y="420" width="35" height="25"/>
  </g>
  <!-- Building C -->
  <rect x="560" y="220" width="160" height="260" fill="#1a3050"/>
  <rect x="565" y="225" width="150" height="250" fill="#203866"/>
  <g fill="#7eb8e8" opacity="0.65">
    <rect x="580" y="240" width="30" height="25"/>
    <rect x="625" y="240" width="30" height="25"/>
    <rect x="670" y="240" width="30" height="25"/>
    <rect x="580" y="280" width="30" height="25" fill="#f0c060" opacity="0.85"/>
    <rect x="625" y="280" width="30" height="25"/>
    <rect x="670" y="280" width="30" height="25"/>
    <rect x="580" y="320" width="30" height="25"/>
    <rect x="625" y="320" width="30" height="25"/>
    <rect x="670" y="320" width="30" height="25" fill="#f0c060" opacity="0.7"/>
    <rect x="580" y="360" width="30" height="25"/>
    <rect x="625" y="360" width="30" height="25"/>
    <rect x="670" y="360" width="30" height="25"/>
    <rect x="580" y="400" width="30" height="25"/>
    <rect x="625" y="400" width="30" height="25" fill="#f0c060" opacity="0.9"/>
    <rect x="670" y="400" width="30" height="25"/>
  </g>
  <!-- Stars -->
  <g fill="white" opacity="0.5">
    <circle cx="50" cy="50" r="1.5"/>
    <circle cx="150" cy="30" r="1"/>
    <circle cx="250" cy="60" r="1.5"/>
    <circle cx="550" cy="40" r="1"/>
    <circle cx="650" cy="20" r="1.5"/>
    <circle cx="750" cy="55" r="1"/>
    <circle cx="700" cy="100" r="1"/>
    <circle cx="30" cy="120" r="1.5"/>
  </g>
  <!-- Gold accent line -->
  <rect x="0" y="478" width="800" height="2" fill="#c49a2e" opacity="0.6"/>
  <!-- Label -->
  <text x="400" y="545" text-anchor="middle" font-family="Arial, sans-serif" font-size="14" fill="#c49a2e" opacity="0.8">EMERA DEVELOPMENTS</text>
</svg>
